<?xml version="1.0" encoding="UTF-8" standalone="no"?>
<!DOCTYPE svg PUBLIC "-//W3C//DTD SVG 1.1//EN" "http://www.w3.org/Graphics/SVG/1.1/DTD/svg11.dtd">
<svg version="1.1" xmlns="http://www.w3.org/2000/svg" xmlns:xlink="http://www.w3.org/1999/xlink" preserveAspectRatio="xMidYMid meet" viewBox="0 0 640 640" width="640" height="640"><defs><path d="M20 0L20 20L0 20L0 0L20 0Z" id="b2JgjbtUe1"></path><path d="M5 1C3.9 1 3 1.9 3 3C3 4.4 3 15.6 3 17C3 18.1 3.9 19 5 19C6 19 14 19 15 19C16.1 19 17 18.1 17 17C17 16.27 17 12.6 17 6L12 1C7.8 1 5.47 1 5 1ZM11 2.5L15.5 7L11 7L11 2.5Z" id="aCK3r852d"></path></defs><g><g><g><use xlink:href="#b2JgjbtUe1" opacity="1" fill="#000000" fill-opacity="0"></use><g><use xlink:href="#b2JgjbtUe1" opacity="1" fill-opacity="0" stroke="#000000" stroke-width="1" stroke-opacity="0"></use></g></g><g><use xlink:href="#aCK3r852d" opacity="1" fill="#cccccc" fill-opacity="1"></use><g><use xlink:href="#aCK3r852d" opacity="1" fill-opacity="0" stroke="#000000" stroke-width="1" stroke-opacity="0"></use></g></g></g></g></svg>